HIERARCHY
ROOT Hips
{
	OFFSET -3.958830 18.904000 13.208200
	CHANNELS 6 Xposition Yposition Zposition Zrotation Yrotation Xrotation 
	JOINT LHipJoint
	{
		OFFSET 0.000000 0.000000 0.000000
		CHANNELS 3 Zrotation Yrotation Xrotation
		JOINT LeftUpLeg
		{
			OFFSET 1.800000 -1.400000 0.085000
			CHANNELS 3 Zrotation Yrotation Xrotation
			JOINT LeftLeg
			{
				OFFSET 2.215000 -6.000000 0.000000
				CHANNELS 3 Zrotation Yrotation Xrotation
				JOINT LeftFoot
				{
					OFFSET 2.500000 -6.900000 0.000000
					CHANNELS 3 Zrotation Yrotation Xrotation
					JOINT LeftToeBase
					{
						OFFSET 0.200000 -0.500000 1.950000
						CHANNELS 3 Zrotation Yrotation Xrotation
						End Site
						{
							OFFSET 0.000000 0.000000 0.000000
						}
					}
				}
			}
		}
	}
	JOINT RHipJoint
	{
		OFFSET 0.000000 0.000000 0.000000
		CHANNELS 3 Zrotation Yrotation Xrotation
		JOINT RightUpLeg
		{
			OFFSET -1.800000 -1.400000 0.085000
			CHANNELS 3 Zrotation Yrotation Xrotation
			JOINT RightLeg
			{
				OFFSET -2.215000 -6.000000 0.000000
				CHANNELS 3 Zrotation Yrotation Xrotation
				JOINT RightFoot
				{
					OFFSET -2.500000 -6.900000 0.000000
					CHANNELS 3 Zrotation Yrotation Xrotation
					JOINT RightToeBase
					{
						OFFSET -0.200000 -0.500000 1.950000
						CHANNELS 3 Zrotation Yrotation Xrotation
						End Site
						{
							OFFSET 0.000000 0.000000 0.000000
						}
					}
				}
			}
		}
	}
	JOINT LowerBack
	{
		OFFSET 0.000000 0.000000 0.000000
		CHANNELS 3 Zrotation Yrotation Xrotation
		JOINT Spine
		{
			OFFSET -0.087000 1.940000 -0.288900
			CHANNELS 3 Zrotation Yrotation Xrotation
			JOINT Spine1
			{
				OFFSET 0.000000 1.950000 0.060000
				CHANNELS 3 Zrotation Yrotation Xrotation
				JOINT Neck
				{
					OFFSET 0.000000 0.000000 0.000000
					CHANNELS 3 Zrotation Yrotation Xrotation
					JOINT Neck1
					{
						OFFSET 0.000000 1.600000 0.340000
						CHANNELS 3 Zrotation Yrotation Xrotation
						JOINT Head
						{
							OFFSET 0.000000 1.667000 -0.240000
							CHANNELS 3 Zrotation Yrotation Xrotation
							End Site
							{
								OFFSET 0.000000 0.000000 0.000000
							}
						}
					}
				}
				JOINT LeftShoulder
				{
					OFFSET 0.000000 0.000000 0.000000
					CHANNELS 3 Zrotation Yrotation Xrotation
					JOINT LeftArm
					{
						OFFSET 2.700000 1.550000 -0.730000
						CHANNELS 3 Zrotation Yrotation Xrotation
						JOINT LeftForeArm
						{
							OFFSET 5.450000 0.000000 0.000000
							CHANNELS 3 Zrotation Yrotation Xrotation
							JOINT LeftHand
							{
								OFFSET 3.450000 0.000000 0.000000
								CHANNELS 3 Zrotation Yrotation Xrotation
								JOINT LeftHandIndex1
								{
									OFFSET 0.750000 0.000000 0.000000
									CHANNELS 3 Zrotation Yrotation Xrotation
									End Site
									{
										OFFSET 0.000000 0.000000 0.000000
									}
								}
							}
						}
					}
				}
				JOINT RightShoulder
				{
					OFFSET 0.000000 0.000000 0.000000
					CHANNELS 3 Zrotation Yrotation Xrotation
					JOINT RightArm
					{
						OFFSET -2.700000 1.550000 -0.730000
						CHANNELS 3 Zrotation Yrotation Xrotation
						JOINT RightForeArm
						{
							OFFSET -5.450000 0.000000 0.000000
							CHANNELS 3 Zrotation Yrotation Xrotation
							JOINT RightHand
							{
								OFFSET -3.450000 0.000000 0.000000
								CHANNELS 3 Zrotation Yrotation Xrotation
								JOINT RightHandIndex1
								{
									OFFSET -0.750000 0.000000 0.000000
									CHANNELS 3 Zrotation Yrotation Xrotation
									End Site
									{
										OFFSET 0.000000 0.000000 0.000000
									}
								}
							}
						}
					}
				}
			}
		}
	}
}
MOTION
Frames: 9
Frame Time: 0.016667
-24.824750 16.988440 3.512270 -2.624441 30.926316 16.244789 -14.838701 9.519190 4.807227 10.322249 -4.567413 -38.767936 0.685095 0.479523 -17.772724 -2.029269 3.749722 3.467379 2.261330 2.002760 1.422870 19.056178 -10.820049 2.319123 4.383251 2.156281 -16.391130 5.498781 -3.404520 14.026677 -0.377795 -3.931517 2.668939 1.952320 0.773920 0.235910 -5.214078 3.317021 -7.252898 11.524867 5.355875 -3.288991 -1.129352 3.897768 -8.061639 -2.078124 -2.662259 2.585231 -2.444662 16.912751 8.354236 7.331730 3.992660 -8.822600 -0.544471 17.791472 -6.169471 -28.578354 -19.028802 8.741493 17.460517 -28.748042 -2.045349 -3.965417 3.870524 0.385140 0.512480 -0.377370 0.814150 3.298357 -10.372628 -5.101343 31.080123 29.711956 11.241653 -21.213963 24.650654 -6.433754 1.439489 -2.691427 -0.550660 0.799280 -0.747600 -0.197390 
-24.784800 16.978730 3.541060 -3.106168 30.354910 16.726955 -14.891571 9.621220 4.806255 11.456692 -4.096538 -39.350651 2.114665 0.677863 -17.154610 -2.016456 3.682638 3.370321 2.420000 2.159680 1.644090 19.027862 -10.642257 2.294510 4.949786 2.145232 -16.385674 4.859744 -3.117866 13.369688 -0.421510 -3.827414 2.602231 2.011710 0.569060 0.310460 -5.068407 2.844152 -7.236028 11.428203 6.431241 -3.570291 -1.037153 4.992315 -8.860738 -2.162376 -3.176943 2.547506 -3.844839 19.269063 6.852428 6.613130 6.123520 -9.180620 0.992563 20.449320 -5.812841 -29.669154 -18.004576 8.360745 16.748799 -29.978382 -1.883719 -3.869541 4.107467 0.389080 0.466040 -0.262230 0.758320 1.935321 -12.867008 -5.138030 29.804052 23.662298 9.306961 -19.061069 34.091323 -5.541841 1.320121 -2.877862 -0.436500 0.607590 -0.867460 -0.250880 
-24.749590 16.987900 3.579210 -3.275660 29.694140 16.694977 -14.920472 9.829522 4.723335 12.002183 -3.740265 -39.027726 3.824170 0.712263 -16.069038 -1.834524 3.374839 3.259127 2.653400 2.460630 1.778540 18.995317 -10.562265 2.298573 5.386699 1.722074 -15.486052 3.901979 -2.788255 11.922727 -0.616809 -3.657109 2.506786 2.066830 0.213920 0.513480 -4.993231 2.387696 -7.231916 11.427678 7.008740 -3.232389 -1.151888 5.525367 -10.144371 -2.696941 -3.720627 2.833384 -5.733360 23.339160 6.170639 8.730560 8.838050 -11.856150 2.264094 23.034893 -4.843633 -31.548027 -17.203730 8.222547 19.983032 -31.791756 -2.366657 -3.653199 4.468735 0.452290 0.279140 0.081720 0.789490 1.747046 -15.372439 -6.304685 29.904252 20.971184 8.688543 -17.325308 38.790925 -4.201214 1.373680 -3.042332 -0.134560 0.292540 -1.045040 -0.200470 
-24.724030 16.996420 3.661320 -3.628136 28.317993 16.472989 -14.934295 10.194448 4.543862 12.195268 -3.452712 -38.607173 6.901810 0.851043 -13.606207 -1.743269 3.150453 3.300874 2.617730 2.412020 1.733790 18.948579 -10.555655 2.395912 6.187975 0.947537 -13.688908 2.637929 -2.458068 9.157245 -0.686670 -3.547516 2.543602 1.950650 0.157450 0.592470 -4.951755 1.883003 -7.246793 11.378926 7.291799 -2.513174 0.040287 5.940475 -13.266265 -4.424098 -4.124292 2.979223 -7.248557 27.635563 6.332057 11.575180 11.256950 -12.108380 8.549234 27.482826 -2.874316 -39.787609 -17.476702 9.201869 20.682770 -31.696669 -2.064049 -3.537686 4.663744 0.545980 0.198330 0.200230 0.813160 -1.151067 -18.790626 -8.091452 33.407137 21.364076 10.070796 -12.644430 39.193930 -1.595819 1.448875 -3.064564 -0.068720 0.186520 -1.070420 -0.154790 
-24.706360 16.976550 3.680570 -3.339267 26.303082 17.902551 -14.901606 10.271033 4.491868 12.653322 -3.248861 -38.816232 8.108806 0.910868 -12.194898 -1.724248 3.224080 3.325423 2.604340 2.471990 1.588620 18.957757 -10.632579 2.422724 5.847755 1.544763 -15.346737 1.947745 -2.202567 9.984199 -0.613345 -3.554309 2.561683 2.037440 0.371240 0.667830 -5.009501 1.986806 -7.201458 10.974253 7.031352 -3.293291 0.319805 5.447427 -14.322362 -5.419604 -3.547280 2.850989 -8.367999 34.593057 3.343368 14.432590 14.579400 -8.082280 13.632657 29.464011 -0.876510 -40.611010 -11.846962 7.829260 17.930552 -36.576543 -0.982520 -3.675369 5.033798 0.378800 0.371830 0.109290 0.917640 -3.993302 -20.783990 -9.551028 38.731448 23.145270 12.068175 -10.350364 37.669494 -1.067780 1.367420 -3.223451 -0.064540 0.228760 -1.043470 -0.061110 
-24.701530 16.981330 3.796980 -3.954715 20.937026 18.809386 -14.820888 10.584314 4.328672 14.665747 -2.378992 -36.416814 9.783056 1.122841 -10.457699 -1.602568 3.445451 3.373985 2.481710 2.444540 1.299880 18.958612 -10.758152 2.588176 6.423837 1.646915 -15.449832 -0.007825 -1.564286 8.669216 -0.515624 -3.480468 2.702418 2.065470 0.720440 0.624650 -5.161562 1.981572 -7.164357 11.288297 4.726460 -3.615217 4.467178 3.424391 -18.001853 -9.846767 -2.251748 2.703291 -9.968848 46.754355 0.109836 22.256800 20.282640 -0.937550 27.216628 34.105813 -0.335169 -50.127698 0.640454 4.981437 17.036325 -29.216871 2.616320 -4.112318 5.120378 0.225420 0.522290 -0.054110 1.057800 -9.354879 -20.577361 -10.383472 50.150563 31.967590 19.194103 -6.419182 30.428390 -1.778081 1.384093 -3.188091 -0.145130 0.411230 -0.969450 0.078010 
-24.739950 16.980950 3.852720 -5.254547 11.268211 19.783859 -14.780997 11.177602 3.962705 16.843815 -0.828465 -32.846414 11.417256 1.607755 -7.303171 -1.392469 3.834576 3.489790 1.965740 2.034200 0.695280 18.902108 -10.833772 2.788878 7.549751 2.520702 -17.534379 -3.644004 -0.643501 9.956241 -0.209892 -3.343685 2.990946 1.888940 1.312720 0.483360 -5.124128 1.664933 -6.974953 10.857868 5.650659 -3.590217 6.526456 4.517133 -18.511213 -10.092669 -0.830503 1.413388 -10.666504 55.245860 -2.428198 29.839550 24.527240 9.278160 32.995439 37.157252 -0.999269 -47.514216 9.721608 3.460245 13.709454 -26.296787 4.169215 -4.690668 4.985238 -0.035060 0.814650 -0.432670 1.138900 -14.865510 -21.180379 -9.003908 63.209732 36.089196 24.273384 -5.400387 28.867698 -2.784609 1.296456 -3.181144 -0.377270 0.690710 -0.698850 0.236990 
-24.745890 16.989520 3.862910 -4.602017 10.579028 20.193115 -14.853991 11.610938 4.030573 17.083914 -0.720730 -32.968916 9.464958 1.755056 -5.721340 -1.181809 3.815617 3.577923 1.405050 1.309950 0.450490 18.763894 -10.680883 2.871305 7.513635 3.409757 -19.045173 -5.179594 -0.475612 12.527900 -0.067840 -3.179571 3.186213 1.344750 1.373250 0.492300 -4.845026 0.651399 -7.302860 11.569510 5.393180 0.521892 2.276600 5.103297 -22.340392 -5.975044 -0.467356 0.293266 -7.884025 54.778482 2.950917 30.205370 27.976770 13.559180 30.293317 38.023287 -2.123583 -36.949827 8.456374 2.836728 8.839773 -23.283922 4.019868 -4.591138 4.819881 0.072480 0.856980 -0.496110 0.971890 -20.529362 -24.111196 -6.766571 69.578994 35.445588 25.242594 -3.060570 31.216713 -1.258465 1.202566 -3.203826 -0.487720 0.553560 -0.480770 0.139600 
-24.771270 16.997250 3.849760 -6.488866 0.650655 20.402145 -14.717974 12.003935 3.434796 17.640677 0.215074 -27.427386 11.947870 1.804401 -3.978664 -1.327290 4.103073 3.598623 1.795080 2.055310 0.250340 18.856395 -10.747997 3.098651 8.892856 3.691943 -18.945167 -8.551592 0.896271 9.853997 -0.057486 -3.226496 3.191516 2.013250 1.851090 0.361240 -5.099550 1.018580 -6.591904 10.300200 6.027929 -4.569580 11.590426 5.540453 -16.166443 -13.983113 0.067469 -0.322725 -14.825617 65.890133 -8.613597 40.175310 27.929120 18.586450 43.172108 41.199500 -0.530432 -50.450752 20.589140 3.365010 15.012147 -21.430649 4.776060 -5.610764 4.594686 -0.239020 1.031430 -0.674300 1.339820 -17.419519 -22.646590 -9.827357 76.963436 41.070666 31.620510 -1.687220 27.669545 -3.049657 1.156454 -3.227970 -0.549920 1.085840 -0.563560 0.447230 
